<?xml version="1.0" encoding="UTF-8"?>
<svg version="1.1" xmlns="http://www.w3.org/2000/svg" width="512" height="512">
<path d="M0 0 C1.03066637 0.91585879 2.06061619 1.83252459 3.08984375 2.75 C3.60530762 3.20375 4.12077148 3.6575 4.65185547 4.125 C46.89103331 41.37696518 71.47559827 94.79327743 75.08984375 150.75 C77.74174381 207.29761141 58.91123516 262.48893123 21.08984375 304.75 C20.59838867 305.30316895 20.10693359 305.85633789 19.60058594 306.42626953 C-15.35183839 345.61569192 -63.0868089 368.9992109 -114.91015625 375.75 C-115.90402344 375.88277344 -116.89789063 376.01554687 -117.921875 376.15234375 C-173.65436446 382.09171854 -230.311818 364.92890024 -274.00830078 330.30419922 C-296.09248106 312.25697307 -296.09248106 312.25697307 -297.28125 302.796875 C-297.43039389 295.39231941 -296.97686767 290.34725711 -291.91015625 284.75 C-287.17420863 279.91487024 -282.39542958 277.47337588 -275.59765625 277.375 C-265.84365688 277.63545392 -261.0997256 282.38082057 -254.203125 288.83984375 C-218.47826588 321.20681073 -172.08121731 333.47577053 -124.91015625 331.75 C-88.19967677 329.32218235 -51.96498754 313.05044813 -25.23828125 287.92578125 C-23.4244731 286.23066189 -21.60785915 284.65753465 -19.66015625 283.125 C-8.27742964 273.29446338 0.64077074 259.67278455 8.08984375 246.75 C9.07597656 245.07744141 9.07597656 245.07744141 10.08203125 243.37109375 C19.22342474 227.41031848 24.85510948 209.7966442 28.08984375 191.75 C28.31414062 190.60660156 28.5384375 189.46320313 28.76953125 188.28515625 C35.98664579 145.13076588 24.14670645 99.93836416 -0.84765625 64.4375 C-4.79070336 58.9699004 -9.11589724 53.99109356 -13.734375 49.078125 C-15.42949436 47.26431685 -17.0026216 45.4477029 -18.53515625 43.5 C-21.69569277 39.8404314 -25.17716014 36.81421831 -28.91015625 33.75 C-30.28300781 32.62078125 -30.28300781 32.62078125 -31.68359375 31.46875 C-68.10320901 2.4798371 -113.32564971 -10.51498835 -159.65625 -5.75390625 C-164.45540509 -5.14037265 -169.18263598 -4.27347339 -173.91015625 -3.25 C-175.07732178 -3.00056641 -175.07732178 -3.00056641 -176.26806641 -2.74609375 C-212.09827976 5.19167659 -247.48639657 25.16552733 -271.09716797 53.60595703 C-273.21902567 56.11526949 -275.41077521 58.55341263 -277.61328125 60.9921875 C-278.82226074 62.33192627 -278.82226074 62.33192627 -280.05566406 63.69873047 C-280.66764648 64.37564941 -281.27962891 65.05256836 -281.91015625 65.75 C-280.61392334 65.7593457 -279.31769043 65.76869141 -277.98217773 65.77832031 C-273.15305769 65.81832288 -268.32456783 65.8841106 -263.49584961 65.95751953 C-261.40966921 65.98566962 -259.32338333 66.0069137 -257.23706055 66.02099609 C-254.2304101 66.04250802 -251.22501984 66.08920124 -248.21875 66.140625 C-246.82927406 66.14246796 -246.82927406 66.14246796 -245.41172791 66.14434814 C-238.66568154 66.2954444 -234.33602269 67.68475108 -229.203125 72.27734375 C-223.75082273 79.23240071 -223.21441666 85.12058476 -223.91015625 93.75 C-224.96051874 99.48879871 -227.46669467 102.82515327 -231.8984375 106.5234375 C-237.53596832 109.9606893 -243.1557424 110.07633958 -249.55224609 110.14819336 C-250.5058754 110.16627045 -251.4595047 110.18434753 -252.44203186 110.20297241 C-255.584982 110.25920791 -258.72788764 110.300648 -261.87109375 110.33984375 C-264.06295936 110.3712726 -266.25482335 110.40281419 -268.44668579 110.4344635 C-273.03796423 110.49786284 -277.62926189 110.55264742 -282.22070312 110.6027832 C-288.09434258 110.66863414 -293.96695771 110.76692007 -299.8399868 110.87312984 C-304.36609029 110.94947918 -308.89225781 111.00290886 -313.41875076 111.05008125 C-315.58372386 111.07644844 -317.74861221 111.11119252 -319.913311 111.15458488 C-322.94557826 111.21304212 -325.97653777 111.23915631 -329.00927734 111.25756836 C-329.89681198 111.28175339 -330.78434662 111.30593842 -331.69877625 111.33085632 C-337.96425204 111.32073433 -342.03852736 109.70733223 -346.91015625 105.75 C-348.96875 103.43359375 -348.96875 103.43359375 -350.34765625 101.1875 C-350.82074219 100.44371094 -351.29382813 99.69992188 -351.78125 98.93359375 C-354.30114826 94.05946527 -354.03155165 89.18750934 -353.97949219 83.80981445 C-353.97470352 82.90685135 -353.96991486 82.00388824 -353.96498108 81.07356262 C-353.94729055 78.08673058 -353.92153883 75.10004276 -353.89453125 72.11328125 C-353.87783264 70.03305591 -353.86117057 67.95283028 -353.84454346 65.87260437 C-353.80806412 61.50885511 -353.76684363 57.14517668 -353.72314453 52.78149414 C-353.66827751 47.20442853 -353.63166244 41.62740442 -353.59951401 36.05016804 C-353.57156813 31.7510822 -353.53050718 27.45219209 -353.48590851 23.15324974 C-353.46677966 21.09811473 -353.45244988 19.04292901 -353.4431076 16.98772621 C-353.4286868 14.10387979 -353.39571331 11.22078735 -353.35839844 8.3371582 C-353.35826248 7.49683044 -353.35812653 6.65650269 -353.35798645 5.79071045 C-353.24264008 -0.78793687 -352.20359767 -7.26354041 -348.11328125 -12.58984375 C-342.14865915 -17.46890463 -336.93737645 -19.77940945 -329.015625 -19.48828125 C-321.61603404 -18.65085073 -317.17043989 -16.21940792 -312.3203125 -10.578125 C-309.15457494 -5.35158876 -308.64539658 0.21784659 -308.49609375 6.21484375 C-308.4767276 6.89301651 -308.45736145 7.57118927 -308.43740845 8.26991272 C-308.37823626 10.40898566 -308.33148106 12.54811428 -308.28515625 14.6875 C-308.2469188 16.14911036 -308.20786383 17.61069957 -308.16796875 19.07226562 C-308.07258806 22.63131543 -307.98833058 26.19052587 -307.91015625 29.75 C-307.49040527 29.25298584 -307.0706543 28.75597168 -306.63818359 28.24389648 C-302.52289062 23.44575371 -298.20833425 19.06310018 -293.53515625 14.8125 C-289.36823219 10.98438334 -285.26507744 7.14896563 -281.34765625 3.0625 C-214.56073824 -64.34859482 -101.20750215 -66.55416652 0 0 Z " fill="#000000" transform="translate(394.91015625,93.25)"/>
</svg>
